<svg xmlns="http://www.w3.org/2000/svg" width="300" height="300" viewBox="0 0 300 300"><rect width="100%" height="100%" fill="#F0E6D2"/><path fill="#4A2B2A" d="M68.21 153.63h9.43l-3.6-9.86q-.27-.66-.56-1.56t-.57-1.95q-.27 1.05-.56 1.96-.28.91-.55 1.59zm7.53-18.45 11.64 29.64h-4.26q-.72 0-1.17-.36t-.68-.89l-2.21-6.05H66.78l-2.22 6.05q-.16.47-.63.86t-1.17.39h-4.3l11.66-29.64zm20.23 25.09h11.85v4.55H90.46v-29.64h5.51zm43.77-25.09h4.16v29.64h-4.86v-19.15q0-1.15.12-2.48l-8.95 16.83q-.64 1.21-1.95 1.21h-.78q-1.31 0-1.95-1.21l-9.06-16.89q.06.68.1 1.33.04.66.04 1.21v19.15h-4.85v-29.64h4.16q.37 0 .63.02.27.02.48.1.22.08.39.27.18.18.34.49l8.88 16.46q.35.66.64 1.35.3.7.59 1.44.29-.76.59-1.47.31-.71.66-1.36l8.75-16.42q.17-.31.35-.49.19-.19.4-.27.22-.08.48-.1.27-.02.64-.02M178.77 150q0 3.26-1.08 6.04-1.07 2.77-3.04 4.8t-4.74 3.17q-2.76 1.14-6.15 1.14-3.36 0-6.13-1.14-2.76-1.14-4.74-3.17t-3.07-4.8q-1.08-2.78-1.08-6.04t1.08-6.04q1.09-2.78 3.07-4.81t4.74-3.16q2.77-1.14 6.13-1.14 2.26 0 4.25.52t3.65 1.48q1.66.95 2.98 2.31 1.32 1.37 2.24 3.05.93 1.68 1.41 3.65t.48 4.14m-5.64 0q0-2.44-.65-4.38-.66-1.94-1.87-3.29t-2.94-2.07-3.91-.72q-2.17 0-3.9.72t-2.95 2.07-1.88 3.29q-.65 1.94-.65 4.38t.65 4.38q.66 1.93 1.88 3.28 1.22 1.34 2.95 2.06 1.73.71 3.9.71 2.18 0 3.91-.71 1.73-.72 2.94-2.06 1.21-1.35 1.87-3.28.65-1.94.65-4.38m30.63-14.82h4.86v29.64h-2.83q-.66 0-1.1-.22-.44-.21-.85-.72l-15.48-19.77q.13 1.36.13 2.51v18.2h-4.86v-29.64h2.89q.35 0 .6.03.26.03.45.12.2.09.38.27.19.17.41.46l15.54 19.84q-.06-.71-.1-1.41t-.04-1.29zM241.54 150q0 3.26-1.09 5.98-1.08 2.73-3.05 4.7t-4.74 3.05q-2.76 1.09-6.15 1.09h-11.29v-29.64h11.29q3.39 0 6.15 1.09 2.77 1.1 4.74 3.06t3.05 4.68q1.09 2.73 1.09 5.99m-5.66 0q0-2.44-.64-4.38-.65-1.94-1.87-3.28t-2.95-2.06-3.91-.72h-5.76v20.87h5.76q2.18 0 3.91-.71 1.73-.72 2.95-2.06 1.22-1.35 1.87-3.28.64-1.94.64-4.38"/></svg>